<svg xmlns="http://www.w3.org/2000/svg" width="24" height="24" viewBox="0 0 35.998 35.998"><defs><style>.a{fill:none;}.b{fill:#fefefe;fill-rule:evenodd;}</style></defs><g transform="translate(-987 -341)"><path class="a" d="M0,0H36V36H0Z" transform="translate(987 341.001)"/><g transform="translate(989.999 345.501)"><path class="b" d="M11.762,9.412a1.684,1.684,0,0,0-2.349-.393l-1.651.876V1.581a1.5,1.5,0,0,0-1.5-1.5H5.937a1.5,1.5,0,0,0-1.5,1.5V9.894L2.783,9.018A1.684,1.684,0,0,0,.828,11.761L5,14.321a1.677,1.677,0,0,0,1.1.308,1.679,1.679,0,0,0,1.1-.308l4.168-2.56a1.684,1.684,0,0,0,.393-2.349" transform="translate(17.92 13.093)"/><path class="b" d="M13.53,18.472v.674a.95.95,0,0,1-1.9,0v-.679a4.636,4.636,0,0,1-3.187-1.883,1.056,1.056,0,0,1-.183-.532,1,1,0,0,1,.993-1.024,1.063,1.063,0,0,1,.805.394,3.267,3.267,0,0,0,2.354,1.1c1.665,0,1.856-.685,1.856-1.2,0-.829-.986-1.155-2.129-1.532-1.531-.506-3.375-1.135-3.375-3.346a3.055,3.055,0,0,1,2.866-2.921V6.829a.95.95,0,0,1,1.9,0v.71A4.057,4.057,0,0,1,16.136,8.97a1.029,1.029,0,0,1,.139.6,1.04,1.04,0,0,1-1.049,1.009,1.2,1.2,0,0,1-.8-.389,2.974,2.974,0,0,0-2-.754c-.962,0-1.541.374-1.541,1,0,.694.916,1,1.979,1.345,1.6.524,3.684,1.177,3.684,3.533a3.071,3.071,0,0,1-3.009,3.152M12.37.181a12.37,12.37,0,1,0,3.577,24.213,3.881,3.881,0,0,1,.7-2.968,3.957,3.957,0,0,1,3.66-1.588V14.855a3.409,3.409,0,0,1,3.546-3.478h.321a3.949,3.949,0,0,1,.489-.061A12.456,12.456,0,0,0,12.37.181" transform="translate(0 -0.181)"/></g></g></svg>