<svg xmlns="http://www.w3.org/2000/svg" width="20" height="20" viewBox="0 0 35.996 35.998"><defs><style>.a{fill:none;}.b{fill:#fff;}</style></defs><g transform="translate(-964 -340.998)"><rect class="a" width="35.997" height="35.997" transform="translate(964.001 340.998)"/><g transform="translate(967.001 343.998)"><path class="b" d="M10.5,25.649v.15A1.1,1.1,0,0,1,9.3,27a1.1,1.1,0,0,1-1.2-1.2v-.15h-.45a1.2,1.2,0,0,1,0-2.4h2.4a.865.865,0,0,0,.9-.9c0-.15,0-.75-.9-.9H8.7a3.087,3.087,0,0,1-.45-6.15v-.15a1.183,1.183,0,0,1,1.2-1.2c.75,0,1.05.75,1.05,1.5v.15h.6a1.183,1.183,0,0,1,1.2,1.2A1.1,1.1,0,0,1,11.1,18H8.7a.865.865,0,0,0-.9.9c0,.15,0,.75.9.9h1.35a3.139,3.139,0,0,1,3.15,3.15,3.025,3.025,0,0,1-2.7,2.7M9.3,11.25A9.379,9.379,0,0,0,0,20.7,9.25,9.25,0,0,0,9.3,30a9.375,9.375,0,0,0,0-18.749" transform="translate(0 -0.001)"/><path class="b" d="M23.7,21.749a1.183,1.183,0,0,1-1.2-1.2A13.091,13.091,0,0,0,9.3,7.5,1.07,1.07,0,0,1,8.25,6.3a1.1,1.1,0,0,1,1.2-1.2,15.267,15.267,0,0,1,15.3,15.3c0,.9-.45,1.35-1.05,1.35" transform="translate(-0.001 0)"/><path class="b" d="M23.7,21.749a1.183,1.183,0,0,1-1.2-1.2A13.091,13.091,0,0,0,9.3,7.5,1.07,1.07,0,0,1,8.25,6.3a1.1,1.1,0,0,1,1.2-1.2,15.267,15.267,0,0,1,15.3,15.3c0,.9-.45,1.35-1.05,1.35" transform="translate(-0.001 0)"/><path class="b" d="M28.8,21.748a1.183,1.183,0,0,1-1.2-1.2A18.18,18.18,0,0,0,9.3,2.25a1.183,1.183,0,0,1-1.2-1.2A1.063,1.063,0,0,1,9.3,0,20.74,20.74,0,0,1,30,20.7a1.07,1.07,0,0,1-1.2,1.05" transform="translate(-0.001 0)"/><path class="b" d="M28.8,21.748a1.183,1.183,0,0,1-1.2-1.2A18.18,18.18,0,0,0,9.3,2.25a1.183,1.183,0,0,1-1.2-1.2A1.063,1.063,0,0,1,9.3,0,20.74,20.74,0,0,1,30,20.7a1.07,1.07,0,0,1-1.2,1.05" transform="translate(-0.001 0)"/></g></g></svg>