<svg xmlns="http://www.w3.org/2000/svg" width="20" height="18" viewBox="0 0 35.998 35.998"><defs><style>.a{fill:none;}.b{fill:#fff;}</style></defs><g transform="translate(-872 -341)"><rect class="a" width="35.997" height="35.998" transform="translate(872.001 341.001)"/><g transform="translate(-153.5 -0.501)"><path class="b" d="M1.8,28.328A2.1,2.1,0,0,1,0,26.162v-24A2.1,2.1,0,0,1,1.8,0,2.1,2.1,0,0,1,3.6,2.166v24a1.9,1.9,0,0,1-1.8,2.166" transform="translate(1028.5 345.501)"/><path class="b" d="M25.2,28.328a1.989,1.989,0,0,1-1.8-2.166v-24A2.1,2.1,0,0,1,25.2,0,2.1,2.1,0,0,1,27,2.166v24a2.1,2.1,0,0,1-1.8,2.166" transform="translate(1031.495 345.501)"/><path class="b" d="M7.8,21.6a1.183,1.183,0,0,1-1.2-1.2V1.95a1.2,1.2,0,1,1,2.4,0v18.6A1.07,1.07,0,0,1,7.8,21.6" transform="translate(1029.304 345.501)"/><path class="b" d="M13.5,26.828A1.6,1.6,0,0,1,12,25.152V1.677A1.507,1.507,0,0,1,13.5,0,1.6,1.6,0,0,1,15,1.677V24.984a1.659,1.659,0,0,1-1.5,1.844" transform="translate(1029.998 345.501)"/><path class="b" d="M19.2,21.6A1.183,1.183,0,0,1,18,20.4V1.95A1.183,1.183,0,0,1,19.2.75a1.1,1.1,0,0,1,1.2,1.2v18.6a1.273,1.273,0,0,1-1.2,1.05" transform="translate(1030.692 345.501)"/></g></g></svg>