<svg xmlns="http://www.w3.org/2000/svg" width="24" height="24" viewBox="0 0 36 36"><defs><style>.a{fill:none;}.b{fill:#fff;}</style></defs><g transform="translate(-918 -341)"><path class="a" d="M0,0H36V36H0Z" transform="translate(918.001 340.999)"/><path class="b" d="M30.61,7.735V9.944H3V7.735A1.735,1.735,0,0,1,4.578,6h24.3A1.751,1.751,0,0,1,30.61,7.735" transform="translate(918.001 342.499)"/><path class="b" d="M14.833,22.053a3.946,3.946,0,0,1,2.84-6.784,4.206,4.206,0,0,1,2.84,1.1l1.893,1.893c.158.158.316.158.316,0l5.68-5.522a4.615,4.615,0,0,1,1.893-1.1.158.158,0,0,0,.158-.158V9.9H3V21.738a1.578,1.578,0,0,0,1.578,1.578H15.622c.316,0,.316-.158.158-.316l-.947-.947" transform="translate(918.001 344.755)"/><path class="b" d="M27.724,15.187a1.7,1.7,0,0,0,.473-1.1,1.433,1.433,0,0,0-.473-1.1,1.7,1.7,0,0,0-1.1-.473,1.433,1.433,0,0,0-1.1.473l-7.731,7.257L14,16.607a1.7,1.7,0,0,0-1.1-.473,1.433,1.433,0,0,0-1.1.473,1.526,1.526,0,0,0,0,2.209l4.891,4.733h0a1.526,1.526,0,0,0,2.209,0h0L22.2,20.236Z" transform="translate(922.805 346.257)"/></g></svg>