<svg xmlns="http://www.w3.org/2000/svg" fill="#fff" width="11" height="20" viewBox="0 0 18 32" id="icon-bank-statement"><title>&#xCD;cone do Extrato</title><path d="M10.686 13.886V7.143c1.543.229 3.2.914 4.057 2.514.457.857 1.543 1.2 2.4.743s1.2-1.543.743-2.4c-1.6-3.029-4.514-4.171-7.2-4.457V1.257C10.686.571 10.115 0 9.429 0h-.286c-.686 0-1.257.571-1.257 1.257v2.286a6.319 6.319 0 0 0-1.714.4C2.115 5.314.458 8.686.629 11.429c.286 4.514 4.229 5.2 7.257 5.657v7.829c-1.429-.229-3.371-.914-4.514-3.2-.457-.857-1.543-1.2-2.4-.743s-1.2 1.543-.743 2.4c1.543 2.914 4.343 4.8 7.657 5.086v2.229c0 .686.571 1.257 1.257 1.257h.286c.686 0 1.257-.571 1.257-1.257v-2.343c2.629-.4 4.971-1.657 6.114-3.486 1.429-2.229 1.543-5.029.343-7.2-1.429-2.457-4-3.314-6.457-3.771zm-2.972-.4c-2.971-.514-3.6-.914-3.714-2.286-.057-1.029.514-3.029 3.086-3.886.171-.057.343-.114.571-.171v6.343zm5.886 9.6c-.457.743-1.6 1.429-3.086 1.771v-7.314c1.6.343 2.743.857 3.314 2 .629 1.143.343 2.629-.229 3.543z"/></svg>